<mxfile>
    <diagram id="fBmKRcNXOsGy48T2ANt3" name="Page-1">
        <mxGraphModel dx="484" dy="343" grid="1" gridSize="10" guides="1" tooltips="1" connect="1" arrows="1" fold="1" page="1" pageScale="1" pageWidth="850" pageHeight="1100" math="0" shadow="0">
            <root>
                <mxCell id="0"/>
                <mxCell id="1" parent="0"/>
                <mxCell id="5" value="red&amp;nbsp; &amp;nbsp; &amp;nbsp; &amp;nbsp; &amp;nbsp;___________________________________0&lt;br&gt;green&amp;nbsp; &amp;nbsp; &amp;nbsp;___________________________________0&lt;br&gt;yellow&amp;nbsp; &amp;nbsp; ___________________________________0&lt;br&gt;blue&amp;nbsp; &amp;nbsp; &amp;nbsp; &amp;nbsp;___________________________________0&lt;br&gt;magenta___________________________________0&lt;br&gt;cyan&amp;nbsp; &amp;nbsp; &amp;nbsp; &amp;nbsp;___________________________________0&lt;br&gt;white&amp;nbsp; &amp;nbsp; &amp;nbsp; ___________________________________0" style="text;html=1;strokeColor=none;fillColor=none;align=left;verticalAlign=middle;whiteSpace=wrap;rounded=0;" vertex="1" parent="1">
                    <mxGeometry x="70" y="70" width="310" height="160" as="geometry"/>
                </mxCell>
            </root>
        </mxGraphModel>
    </diagram>
</mxfile>